<mxfile host="app.diagrams.net" modified="2021-03-01T02:57:35.803Z" agent="5.0 (Windows NT 6.1; Win64; x64) AppleWebKit/537.36 (KHTML, like Gecko) Chrome/84.0.4147.89 Safari/537.36" etag="g4tvPyLt-XdNG0PhEGS-" version="14.4.2" type="github" pages="2">
  <diagram id="gUW_gxuXwpB0K3utl5sX" name="Page-1">
    <mxGraphModel dx="1108" dy="482" grid="1" gridSize="10" guides="1" tooltips="1" connect="1" arrows="1" fold="1" page="1" pageScale="1" pageWidth="827" pageHeight="1169" math="0" shadow="0">
      <root>
        <mxCell id="0" />
        <mxCell id="1" parent="0" />
        <mxCell id="UgdYV5Sys4c05eqZEx1u-29" value="Pool" style="swimlane;html=1;childLayout=stackLayout;resizeParent=1;resizeParentMax=0;startSize=20;horizontal=0;horizontalStack=1;" parent="1" vertex="1">
          <mxGeometry x="170" y="70" width="850" height="2500" as="geometry" />
        </mxCell>
        <mxCell id="UgdYV5Sys4c05eqZEx1u-30" value="APP" style="swimlane;html=1;startSize=20;" parent="UgdYV5Sys4c05eqZEx1u-29" vertex="1">
          <mxGeometry x="20" width="310" height="2500" as="geometry" />
        </mxCell>
        <mxCell id="UgdYV5Sys4c05eqZEx1u-51" style="edgeStyle=orthogonalEdgeStyle;rounded=0;orthogonalLoop=1;jettySize=auto;html=1;entryX=0.5;entryY=0;entryDx=0;entryDy=0;" parent="UgdYV5Sys4c05eqZEx1u-30" source="UgdYV5Sys4c05eqZEx1u-35" target="UgdYV5Sys4c05eqZEx1u-41" edge="1">
          <mxGeometry relative="1" as="geometry" />
        </mxCell>
        <mxCell id="UgdYV5Sys4c05eqZEx1u-35" value="打开APP" style="strokeWidth=2;html=1;shape=mxgraph.flowchart.start_1;whiteSpace=wrap;" parent="UgdYV5Sys4c05eqZEx1u-30" vertex="1">
          <mxGeometry x="100" y="330" width="100" height="60" as="geometry" />
        </mxCell>
        <mxCell id="UgdYV5Sys4c05eqZEx1u-41" value="用户注册" style="whiteSpace=wrap;html=1;" parent="UgdYV5Sys4c05eqZEx1u-30" vertex="1">
          <mxGeometry x="90" y="495" width="120" height="60" as="geometry" />
        </mxCell>
        <mxCell id="UgdYV5Sys4c05eqZEx1u-129" value="用户登录" style="whiteSpace=wrap;html=1;" parent="UgdYV5Sys4c05eqZEx1u-30" vertex="1">
          <mxGeometry x="90" y="910" width="120" height="60" as="geometry" />
        </mxCell>
        <mxCell id="UgdYV5Sys4c05eqZEx1u-131" value="跳转默认单位页面" style="whiteSpace=wrap;html=1;" parent="UgdYV5Sys4c05eqZEx1u-30" vertex="1">
          <mxGeometry x="90" y="990" width="120" height="60" as="geometry" />
        </mxCell>
        <mxCell id="UgdYV5Sys4c05eqZEx1u-136" value="用户名、密码" style="text;html=1;align=center;verticalAlign=middle;resizable=0;points=[];autosize=1;" parent="UgdYV5Sys4c05eqZEx1u-30" vertex="1">
          <mxGeometry x="210" y="900" width="90" height="20" as="geometry" />
        </mxCell>
        <mxCell id="87xFtUxxgs9xbds1OP3f-34" style="edgeStyle=orthogonalEdgeStyle;rounded=0;orthogonalLoop=1;jettySize=auto;html=1;" parent="UgdYV5Sys4c05eqZEx1u-30" source="UgdYV5Sys4c05eqZEx1u-137" target="UgdYV5Sys4c05eqZEx1u-144" edge="1">
          <mxGeometry relative="1" as="geometry" />
        </mxCell>
        <mxCell id="UgdYV5Sys4c05eqZEx1u-137" value="跳转到扫码页面" style="whiteSpace=wrap;html=1;" parent="UgdYV5Sys4c05eqZEx1u-30" vertex="1">
          <mxGeometry x="90" y="1150" width="120" height="60" as="geometry" />
        </mxCell>
        <mxCell id="UgdYV5Sys4c05eqZEx1u-141" value="跳转到单位选择页面" style="whiteSpace=wrap;html=1;" parent="UgdYV5Sys4c05eqZEx1u-30" vertex="1">
          <mxGeometry x="90" y="1070" width="120" height="60" as="geometry" />
        </mxCell>
        <mxCell id="UgdYV5Sys4c05eqZEx1u-155" style="edgeStyle=orthogonalEdgeStyle;rounded=0;orthogonalLoop=1;jettySize=auto;html=1;entryX=0.5;entryY=0;entryDx=0;entryDy=0;" parent="UgdYV5Sys4c05eqZEx1u-30" source="UgdYV5Sys4c05eqZEx1u-144" target="UgdYV5Sys4c05eqZEx1u-203" edge="1">
          <mxGeometry relative="1" as="geometry">
            <mxPoint x="150" y="1350" as="targetPoint" />
          </mxGeometry>
        </mxCell>
        <mxCell id="UgdYV5Sys4c05eqZEx1u-144" value="扫码二维码" style="whiteSpace=wrap;html=1;" parent="UgdYV5Sys4c05eqZEx1u-30" vertex="1">
          <mxGeometry x="90" y="1250" width="120" height="60" as="geometry" />
        </mxCell>
        <mxCell id="UgdYV5Sys4c05eqZEx1u-160" value="钱包id" style="text;html=1;align=center;verticalAlign=middle;resizable=0;points=[];autosize=1;" parent="UgdYV5Sys4c05eqZEx1u-30" vertex="1">
          <mxGeometry x="240" y="1240" width="50" height="20" as="geometry" />
        </mxCell>
        <mxCell id="UgdYV5Sys4c05eqZEx1u-212" style="edgeStyle=orthogonalEdgeStyle;rounded=0;orthogonalLoop=1;jettySize=auto;html=1;entryX=0;entryY=0.5;entryDx=0;entryDy=0;" parent="UgdYV5Sys4c05eqZEx1u-30" source="UgdYV5Sys4c05eqZEx1u-203" target="UgdYV5Sys4c05eqZEx1u-144" edge="1">
          <mxGeometry relative="1" as="geometry">
            <Array as="points">
              <mxPoint x="50" y="1380" />
              <mxPoint x="50" y="1280" />
            </Array>
          </mxGeometry>
        </mxCell>
        <mxCell id="UgdYV5Sys4c05eqZEx1u-203" value="&lt;span&gt;用户确认&lt;br&gt;绑定？&lt;/span&gt;" style="rhombus;whiteSpace=wrap;html=1;" parent="UgdYV5Sys4c05eqZEx1u-30" vertex="1">
          <mxGeometry x="110" y="1340" width="80" height="80" as="geometry" />
        </mxCell>
        <mxCell id="UgdYV5Sys4c05eqZEx1u-202" value="是" style="text;html=1;align=center;verticalAlign=middle;resizable=0;points=[];autosize=1;" parent="UgdYV5Sys4c05eqZEx1u-30" vertex="1">
          <mxGeometry x="224" y="1410" width="30" height="20" as="geometry" />
        </mxCell>
        <mxCell id="UgdYV5Sys4c05eqZEx1u-211" value="是" style="text;html=1;align=center;verticalAlign=middle;resizable=0;points=[];autosize=1;" parent="UgdYV5Sys4c05eqZEx1u-30" vertex="1">
          <mxGeometry x="160" y="1460" width="30" height="20" as="geometry" />
        </mxCell>
        <mxCell id="UgdYV5Sys4c05eqZEx1u-161" value="钱包信息" style="text;html=1;align=center;verticalAlign=middle;resizable=0;points=[];autosize=1;" parent="UgdYV5Sys4c05eqZEx1u-30" vertex="1">
          <mxGeometry x="235" y="1300" width="60" height="20" as="geometry" />
        </mxCell>
        <mxCell id="UgdYV5Sys4c05eqZEx1u-213" value="否" style="text;html=1;align=center;verticalAlign=middle;resizable=0;points=[];autosize=1;" parent="UgdYV5Sys4c05eqZEx1u-30" vertex="1">
          <mxGeometry x="60" y="1350" width="30" height="20" as="geometry" />
        </mxCell>
        <mxCell id="87xFtUxxgs9xbds1OP3f-35" value="是否成为分户？" style="rhombus;whiteSpace=wrap;html=1;" parent="UgdYV5Sys4c05eqZEx1u-30" vertex="1">
          <mxGeometry x="105" y="1470" width="90" height="100" as="geometry" />
        </mxCell>
        <mxCell id="87xFtUxxgs9xbds1OP3f-37" value="是" style="text;html=1;align=center;verticalAlign=middle;resizable=0;points=[];autosize=1;" parent="UgdYV5Sys4c05eqZEx1u-30" vertex="1">
          <mxGeometry x="160" y="1590" width="30" height="20" as="geometry" />
        </mxCell>
        <mxCell id="UgdYV5Sys4c05eqZEx1u-53" style="edgeStyle=orthogonalEdgeStyle;rounded=0;orthogonalLoop=1;jettySize=auto;html=1;" parent="UgdYV5Sys4c05eqZEx1u-29" source="UgdYV5Sys4c05eqZEx1u-41" target="UgdYV5Sys4c05eqZEx1u-52" edge="1">
          <mxGeometry relative="1" as="geometry" />
        </mxCell>
        <mxCell id="UgdYV5Sys4c05eqZEx1u-54" value="提交" style="edgeLabel;html=1;align=center;verticalAlign=middle;resizable=0;points=[];" parent="UgdYV5Sys4c05eqZEx1u-53" vertex="1" connectable="0">
          <mxGeometry x="-0.2754" y="2" relative="1" as="geometry">
            <mxPoint as="offset" />
          </mxGeometry>
        </mxCell>
        <mxCell id="UgdYV5Sys4c05eqZEx1u-55" style="edgeStyle=orthogonalEdgeStyle;rounded=0;orthogonalLoop=1;jettySize=auto;html=1;exitX=0.5;exitY=1;exitDx=0;exitDy=0;entryX=1;entryY=1;entryDx=0;entryDy=0;" parent="UgdYV5Sys4c05eqZEx1u-29" source="UgdYV5Sys4c05eqZEx1u-52" target="UgdYV5Sys4c05eqZEx1u-41" edge="1">
          <mxGeometry relative="1" as="geometry">
            <mxPoint x="210" y="560" as="targetPoint" />
            <Array as="points">
              <mxPoint x="465" y="600" />
              <mxPoint x="270" y="600" />
              <mxPoint x="270" y="555" />
            </Array>
          </mxGeometry>
        </mxCell>
        <mxCell id="UgdYV5Sys4c05eqZEx1u-56" value="注册失败" style="edgeLabel;html=1;align=center;verticalAlign=middle;resizable=0;points=[];" parent="UgdYV5Sys4c05eqZEx1u-55" vertex="1" connectable="0">
          <mxGeometry x="-0.2604" y="3" relative="1" as="geometry">
            <mxPoint y="-13" as="offset" />
          </mxGeometry>
        </mxCell>
        <mxCell id="UgdYV5Sys4c05eqZEx1u-98" style="edgeStyle=orthogonalEdgeStyle;rounded=0;orthogonalLoop=1;jettySize=auto;html=1;entryX=1;entryY=0.5;entryDx=0;entryDy=0;" parent="UgdYV5Sys4c05eqZEx1u-29" source="UgdYV5Sys4c05eqZEx1u-78" target="UgdYV5Sys4c05eqZEx1u-87" edge="1">
          <mxGeometry relative="1" as="geometry" />
        </mxCell>
        <mxCell id="UgdYV5Sys4c05eqZEx1u-100" style="edgeStyle=orthogonalEdgeStyle;rounded=0;orthogonalLoop=1;jettySize=auto;html=1;exitX=0.5;exitY=1;exitDx=0;exitDy=0;" parent="UgdYV5Sys4c05eqZEx1u-29" source="UgdYV5Sys4c05eqZEx1u-87" target="UgdYV5Sys4c05eqZEx1u-78" edge="1">
          <mxGeometry relative="1" as="geometry">
            <Array as="points">
              <mxPoint x="465" y="320" />
              <mxPoint x="550" y="320" />
              <mxPoint x="550" y="280" />
            </Array>
          </mxGeometry>
        </mxCell>
        <mxCell id="UgdYV5Sys4c05eqZEx1u-133" style="edgeStyle=orthogonalEdgeStyle;rounded=0;orthogonalLoop=1;jettySize=auto;html=1;entryX=0;entryY=0.5;entryDx=0;entryDy=0;" parent="UgdYV5Sys4c05eqZEx1u-29" source="UgdYV5Sys4c05eqZEx1u-129" target="UgdYV5Sys4c05eqZEx1u-132" edge="1">
          <mxGeometry relative="1" as="geometry">
            <Array as="points">
              <mxPoint x="360" y="940" />
              <mxPoint x="360" y="940" />
            </Array>
          </mxGeometry>
        </mxCell>
        <mxCell id="UgdYV5Sys4c05eqZEx1u-134" style="edgeStyle=orthogonalEdgeStyle;rounded=0;orthogonalLoop=1;jettySize=auto;html=1;entryX=1;entryY=0.5;entryDx=0;entryDy=0;" parent="UgdYV5Sys4c05eqZEx1u-29" source="UgdYV5Sys4c05eqZEx1u-132" target="UgdYV5Sys4c05eqZEx1u-131" edge="1">
          <mxGeometry relative="1" as="geometry">
            <Array as="points">
              <mxPoint x="455" y="1050" />
              <mxPoint x="316" y="1050" />
              <mxPoint x="316" y="1020" />
            </Array>
          </mxGeometry>
        </mxCell>
        <mxCell id="UgdYV5Sys4c05eqZEx1u-138" style="edgeStyle=orthogonalEdgeStyle;rounded=0;orthogonalLoop=1;jettySize=auto;html=1;entryX=1;entryY=0.5;entryDx=0;entryDy=0;" parent="UgdYV5Sys4c05eqZEx1u-29" source="UgdYV5Sys4c05eqZEx1u-132" target="UgdYV5Sys4c05eqZEx1u-137" edge="1">
          <mxGeometry relative="1" as="geometry">
            <Array as="points">
              <mxPoint x="455" y="1180" />
            </Array>
          </mxGeometry>
        </mxCell>
        <mxCell id="UgdYV5Sys4c05eqZEx1u-142" style="edgeStyle=orthogonalEdgeStyle;rounded=0;orthogonalLoop=1;jettySize=auto;html=1;entryX=1;entryY=0.5;entryDx=0;entryDy=0;" parent="UgdYV5Sys4c05eqZEx1u-29" source="UgdYV5Sys4c05eqZEx1u-132" target="UgdYV5Sys4c05eqZEx1u-141" edge="1">
          <mxGeometry relative="1" as="geometry">
            <Array as="points">
              <mxPoint x="455" y="1100" />
            </Array>
          </mxGeometry>
        </mxCell>
        <mxCell id="UgdYV5Sys4c05eqZEx1u-146" style="edgeStyle=orthogonalEdgeStyle;rounded=0;orthogonalLoop=1;jettySize=auto;html=1;entryX=0;entryY=0.5;entryDx=0;entryDy=0;" parent="UgdYV5Sys4c05eqZEx1u-29" source="UgdYV5Sys4c05eqZEx1u-203" target="UgdYV5Sys4c05eqZEx1u-145" edge="1">
          <mxGeometry relative="1" as="geometry">
            <mxPoint x="230" y="1380" as="sourcePoint" />
            <Array as="points">
              <mxPoint x="170" y="1440" />
            </Array>
          </mxGeometry>
        </mxCell>
        <mxCell id="UgdYV5Sys4c05eqZEx1u-158" style="edgeStyle=orthogonalEdgeStyle;rounded=0;orthogonalLoop=1;jettySize=auto;html=1;" parent="UgdYV5Sys4c05eqZEx1u-29" source="UgdYV5Sys4c05eqZEx1u-144" target="UgdYV5Sys4c05eqZEx1u-180" edge="1">
          <mxGeometry relative="1" as="geometry">
            <mxPoint x="390" y="1270" as="targetPoint" />
            <Array as="points">
              <mxPoint x="465" y="1260" />
            </Array>
          </mxGeometry>
        </mxCell>
        <mxCell id="UgdYV5Sys4c05eqZEx1u-159" style="edgeStyle=orthogonalEdgeStyle;rounded=0;orthogonalLoop=1;jettySize=auto;html=1;exitX=0.016;exitY=0.629;exitDx=0;exitDy=0;exitPerimeter=0;" parent="UgdYV5Sys4c05eqZEx1u-29" source="UgdYV5Sys4c05eqZEx1u-180" target="UgdYV5Sys4c05eqZEx1u-144" edge="1">
          <mxGeometry relative="1" as="geometry">
            <mxPoint x="390" y="1290" as="sourcePoint" />
            <Array as="points">
              <mxPoint x="405" y="1324" />
              <mxPoint x="405" y="1300" />
            </Array>
          </mxGeometry>
        </mxCell>
        <mxCell id="UgdYV5Sys4c05eqZEx1u-209" style="edgeStyle=orthogonalEdgeStyle;rounded=0;orthogonalLoop=1;jettySize=auto;html=1;entryX=1;entryY=0.5;entryDx=0;entryDy=0;" parent="UgdYV5Sys4c05eqZEx1u-29" source="UgdYV5Sys4c05eqZEx1u-145" target="87xFtUxxgs9xbds1OP3f-35" edge="1">
          <mxGeometry relative="1" as="geometry">
            <Array as="points">
              <mxPoint x="470" y="1520" />
            </Array>
            <mxPoint x="230" y="1520" as="targetPoint" />
          </mxGeometry>
        </mxCell>
        <mxCell id="UgdYV5Sys4c05eqZEx1u-32" value="服务" style="swimlane;html=1;startSize=20;" parent="UgdYV5Sys4c05eqZEx1u-29" vertex="1">
          <mxGeometry x="330" width="280" height="2500" as="geometry" />
        </mxCell>
        <mxCell id="UgdYV5Sys4c05eqZEx1u-52" value="注册成功？" style="rhombus;whiteSpace=wrap;html=1;" parent="UgdYV5Sys4c05eqZEx1u-32" vertex="1">
          <mxGeometry x="95" y="485" width="80" height="80" as="geometry" />
        </mxCell>
        <mxCell id="UgdYV5Sys4c05eqZEx1u-60" value="保存用户信息&lt;br&gt;（手机用户表，&lt;br&gt;不是AbpUser）" style="strokeWidth=2;html=1;shape=mxgraph.flowchart.direct_data;whiteSpace=wrap;" parent="UgdYV5Sys4c05eqZEx1u-32" vertex="1">
          <mxGeometry x="60" y="640" width="150" height="90" as="geometry" />
        </mxCell>
        <mxCell id="UgdYV5Sys4c05eqZEx1u-58" value="" style="endArrow=classic;html=1;exitX=0.5;exitY=1;exitDx=0;exitDy=0;entryX=0.5;entryY=0;entryDx=0;entryDy=0;entryPerimeter=0;" parent="UgdYV5Sys4c05eqZEx1u-32" source="UgdYV5Sys4c05eqZEx1u-52" target="UgdYV5Sys4c05eqZEx1u-60" edge="1">
          <mxGeometry width="50" height="50" relative="1" as="geometry">
            <mxPoint x="-50" y="250" as="sourcePoint" />
            <mxPoint x="135" y="370" as="targetPoint" />
          </mxGeometry>
        </mxCell>
        <mxCell id="UgdYV5Sys4c05eqZEx1u-83" value="1.保存单位信息&lt;br&gt;2.生成“用户”角色&lt;br&gt;3.生成管理员账号&lt;br&gt;4.创建“用户”角色的初始权限" style="strokeWidth=2;html=1;shape=mxgraph.flowchart.direct_data;whiteSpace=wrap;" parent="UgdYV5Sys4c05eqZEx1u-32" vertex="1">
          <mxGeometry x="23.75" y="350" width="222.5" height="60" as="geometry" />
        </mxCell>
        <mxCell id="UgdYV5Sys4c05eqZEx1u-96" style="edgeStyle=orthogonalEdgeStyle;rounded=0;orthogonalLoop=1;jettySize=auto;html=1;entryX=0.5;entryY=0;entryDx=0;entryDy=0;entryPerimeter=0;" parent="UgdYV5Sys4c05eqZEx1u-32" source="UgdYV5Sys4c05eqZEx1u-87" target="UgdYV5Sys4c05eqZEx1u-83" edge="1">
          <mxGeometry relative="1" as="geometry" />
        </mxCell>
        <mxCell id="UgdYV5Sys4c05eqZEx1u-87" value="创建单位&lt;br&gt;成功？" style="rhombus;whiteSpace=wrap;html=1;" parent="UgdYV5Sys4c05eqZEx1u-32" vertex="1">
          <mxGeometry x="95" y="220" width="80" height="80" as="geometry" />
        </mxCell>
        <mxCell id="UgdYV5Sys4c05eqZEx1u-97" value="成功" style="text;html=1;align=center;verticalAlign=middle;resizable=0;points=[];autosize=1;" parent="UgdYV5Sys4c05eqZEx1u-32" vertex="1">
          <mxGeometry x="80" y="320" width="40" height="20" as="geometry" />
        </mxCell>
        <mxCell id="UgdYV5Sys4c05eqZEx1u-61" value="注册成功" style="text;html=1;align=center;verticalAlign=middle;resizable=0;points=[];autosize=1;" parent="UgdYV5Sys4c05eqZEx1u-32" vertex="1">
          <mxGeometry x="140" y="570" width="60" height="20" as="geometry" />
        </mxCell>
        <mxCell id="UgdYV5Sys4c05eqZEx1u-101" value="返回结果" style="text;html=1;align=center;verticalAlign=middle;resizable=0;points=[];autosize=1;" parent="UgdYV5Sys4c05eqZEx1u-32" vertex="1">
          <mxGeometry x="165" y="280" width="60" height="20" as="geometry" />
        </mxCell>
        <mxCell id="UgdYV5Sys4c05eqZEx1u-132" value="用户是否&lt;br&gt;绑定单位？" style="rhombus;whiteSpace=wrap;html=1;" parent="UgdYV5Sys4c05eqZEx1u-32" vertex="1">
          <mxGeometry x="82.5" y="890" width="105" height="100" as="geometry" />
        </mxCell>
        <mxCell id="UgdYV5Sys4c05eqZEx1u-135" value="一个" style="text;html=1;align=center;verticalAlign=middle;resizable=0;points=[];autosize=1;" parent="UgdYV5Sys4c05eqZEx1u-32" vertex="1">
          <mxGeometry x="35" y="1020" width="40" height="20" as="geometry" />
        </mxCell>
        <mxCell id="UgdYV5Sys4c05eqZEx1u-139" value="多个" style="text;html=1;align=center;verticalAlign=middle;resizable=0;points=[];autosize=1;" parent="UgdYV5Sys4c05eqZEx1u-32" vertex="1">
          <mxGeometry x="35" y="1070" width="40" height="20" as="geometry" />
        </mxCell>
        <mxCell id="UgdYV5Sys4c05eqZEx1u-140" value="未绑定" style="text;html=1;align=center;verticalAlign=middle;resizable=0;points=[];autosize=1;" parent="UgdYV5Sys4c05eqZEx1u-32" vertex="1">
          <mxGeometry x="30" y="1150" width="50" height="20" as="geometry" />
        </mxCell>
        <mxCell id="87xFtUxxgs9xbds1OP3f-38" style="edgeStyle=orthogonalEdgeStyle;rounded=0;orthogonalLoop=1;jettySize=auto;html=1;entryX=0.5;entryY=0;entryDx=0;entryDy=0;entryPerimeter=0;" parent="UgdYV5Sys4c05eqZEx1u-32" source="UgdYV5Sys4c05eqZEx1u-145" target="UgdYV5Sys4c05eqZEx1u-148" edge="1">
          <mxGeometry relative="1" as="geometry" />
        </mxCell>
        <mxCell id="UgdYV5Sys4c05eqZEx1u-145" value="钱包是否&lt;br&gt;存在主户？" style="rhombus;whiteSpace=wrap;html=1;" parent="UgdYV5Sys4c05eqZEx1u-32" vertex="1">
          <mxGeometry x="90" y="1390" width="100" height="100" as="geometry" />
        </mxCell>
        <mxCell id="b-ZQdXZkgw-ZfgGD9ODn-2" style="edgeStyle=orthogonalEdgeStyle;rounded=0;orthogonalLoop=1;jettySize=auto;html=1;entryX=0.5;entryY=0;entryDx=0;entryDy=0;" edge="1" parent="UgdYV5Sys4c05eqZEx1u-32" source="UgdYV5Sys4c05eqZEx1u-148" target="b-ZQdXZkgw-ZfgGD9ODn-1">
          <mxGeometry relative="1" as="geometry" />
        </mxCell>
        <mxCell id="UgdYV5Sys4c05eqZEx1u-148" value="1.创建用户与单位关系&lt;br&gt;（往AbpUser表插入数据，&lt;br&gt;TenantId+当前用户数据）&lt;br&gt;2.绑定“用户”角色&lt;br&gt;" style="strokeWidth=2;html=1;shape=mxgraph.flowchart.direct_data;whiteSpace=wrap;" parent="UgdYV5Sys4c05eqZEx1u-32" vertex="1">
          <mxGeometry x="35" y="1590" width="208.75" height="120" as="geometry" />
        </mxCell>
        <mxCell id="UgdYV5Sys4c05eqZEx1u-157" value="存在" style="text;html=1;align=center;verticalAlign=middle;resizable=0;points=[];autosize=1;" parent="UgdYV5Sys4c05eqZEx1u-32" vertex="1">
          <mxGeometry x="40" y="1490" width="40" height="20" as="geometry" />
        </mxCell>
        <mxCell id="UgdYV5Sys4c05eqZEx1u-180" value="获取钱包信息：&lt;span&gt;&lt;br&gt;单位、设备、&lt;br&gt;计费方案等&lt;br&gt;&lt;br&gt;&lt;/span&gt;" style="strokeWidth=2;html=1;shape=mxgraph.flowchart.direct_data;whiteSpace=wrap;" parent="UgdYV5Sys4c05eqZEx1u-32" vertex="1">
          <mxGeometry x="70" y="1280" width="130" height="70" as="geometry" />
        </mxCell>
        <mxCell id="UgdYV5Sys4c05eqZEx1u-99" value="提交数据" style="text;html=1;align=center;verticalAlign=middle;resizable=0;points=[];autosize=1;" parent="UgdYV5Sys4c05eqZEx1u-32" vertex="1">
          <mxGeometry x="210" y="220" width="60" height="20" as="geometry" />
        </mxCell>
        <mxCell id="87xFtUxxgs9xbds1OP3f-40" value="&lt;br&gt;3.创建用户与主户关系&lt;br&gt;（往关系表插入数据：&lt;br&gt;分户id、主户id、钱包id）" style="strokeWidth=2;html=1;shape=mxgraph.flowchart.direct_data;whiteSpace=wrap;" parent="UgdYV5Sys4c05eqZEx1u-32" vertex="1">
          <mxGeometry x="39.36" y="2388" width="202.18" height="80" as="geometry" />
        </mxCell>
        <mxCell id="87xFtUxxgs9xbds1OP3f-42" value="保存钱包信息：&lt;br&gt;单位、设备（多个）、&lt;br&gt;计费方案" style="strokeWidth=2;html=1;shape=mxgraph.flowchart.direct_data;whiteSpace=wrap;" parent="UgdYV5Sys4c05eqZEx1u-32" vertex="1">
          <mxGeometry x="60" y="770" width="160" height="80" as="geometry" />
        </mxCell>
        <mxCell id="87xFtUxxgs9xbds1OP3f-46" style="edgeStyle=orthogonalEdgeStyle;rounded=0;orthogonalLoop=1;jettySize=auto;html=1;" parent="UgdYV5Sys4c05eqZEx1u-32" source="87xFtUxxgs9xbds1OP3f-44" target="87xFtUxxgs9xbds1OP3f-45" edge="1">
          <mxGeometry relative="1" as="geometry" />
        </mxCell>
        <mxCell id="87xFtUxxgs9xbds1OP3f-48" style="edgeStyle=orthogonalEdgeStyle;rounded=0;orthogonalLoop=1;jettySize=auto;html=1;entryX=0;entryY=0.5;entryDx=0;entryDy=0;entryPerimeter=0;" parent="UgdYV5Sys4c05eqZEx1u-32" source="87xFtUxxgs9xbds1OP3f-44" edge="1">
          <mxGeometry relative="1" as="geometry">
            <Array as="points">
              <mxPoint x="140.45" y="2200" />
              <mxPoint x="28.45" y="2200" />
              <mxPoint x="28.45" y="2430" />
            </Array>
            <mxPoint x="39.35999999999986" y="2430" as="targetPoint" />
          </mxGeometry>
        </mxCell>
        <mxCell id="87xFtUxxgs9xbds1OP3f-44" value="&lt;span&gt;当前用户是否&lt;br&gt;已经绑定钱包&lt;br&gt;所属单位？&lt;/span&gt;" style="rhombus;whiteSpace=wrap;html=1;" parent="UgdYV5Sys4c05eqZEx1u-32" vertex="1">
          <mxGeometry x="90.45" y="2080" width="100" height="110" as="geometry" />
        </mxCell>
        <mxCell id="87xFtUxxgs9xbds1OP3f-45" value="1.创建用户与单位关系&lt;br&gt;（往AbpUser表插入数据，&lt;br&gt;TenantId+当前用户数据）&lt;br&gt;2.绑定“用户”角色&lt;br&gt;" style="strokeWidth=2;html=1;shape=mxgraph.flowchart.direct_data;whiteSpace=wrap;" parent="UgdYV5Sys4c05eqZEx1u-32" vertex="1">
          <mxGeometry x="43.260000000000005" y="2240" width="194.37" height="100" as="geometry" />
        </mxCell>
        <mxCell id="87xFtUxxgs9xbds1OP3f-47" value="未绑定" style="text;html=1;align=center;verticalAlign=middle;resizable=0;points=[];autosize=1;" parent="UgdYV5Sys4c05eqZEx1u-32" vertex="1">
          <mxGeometry x="145.45" y="2210" width="50" height="20" as="geometry" />
        </mxCell>
        <mxCell id="b-ZQdXZkgw-ZfgGD9ODn-4" style="edgeStyle=orthogonalEdgeStyle;rounded=0;orthogonalLoop=1;jettySize=auto;html=1;" edge="1" parent="UgdYV5Sys4c05eqZEx1u-32" source="b-ZQdXZkgw-ZfgGD9ODn-1" target="b-ZQdXZkgw-ZfgGD9ODn-3">
          <mxGeometry relative="1" as="geometry" />
        </mxCell>
        <mxCell id="b-ZQdXZkgw-ZfgGD9ODn-1" value="&lt;span&gt;单位钱包是否存在&lt;/span&gt;" style="rhombus;whiteSpace=wrap;html=1;" vertex="1" parent="UgdYV5Sys4c05eqZEx1u-32">
          <mxGeometry x="100" y="1750" width="80" height="80" as="geometry" />
        </mxCell>
        <mxCell id="b-ZQdXZkgw-ZfgGD9ODn-3" value="4.创建用户在&lt;br&gt;指定单位的钱包" style="strokeWidth=2;html=1;shape=mxgraph.flowchart.direct_data;whiteSpace=wrap;" vertex="1" parent="UgdYV5Sys4c05eqZEx1u-32">
          <mxGeometry x="80" y="1860" width="120" height="60" as="geometry" />
        </mxCell>
        <mxCell id="b-ZQdXZkgw-ZfgGD9ODn-5" value="5.二维码账户&lt;br&gt;绑定钱包id" style="strokeWidth=2;html=1;shape=mxgraph.flowchart.direct_data;whiteSpace=wrap;" vertex="1" parent="UgdYV5Sys4c05eqZEx1u-32">
          <mxGeometry x="75" y="1950" width="125" height="60" as="geometry" />
        </mxCell>
        <mxCell id="UgdYV5Sys4c05eqZEx1u-31" value="后台" style="swimlane;html=1;startSize=20;" parent="UgdYV5Sys4c05eqZEx1u-29" vertex="1">
          <mxGeometry x="610" width="240" height="2500" as="geometry" />
        </mxCell>
        <mxCell id="UgdYV5Sys4c05eqZEx1u-80" style="edgeStyle=orthogonalEdgeStyle;rounded=0;orthogonalLoop=1;jettySize=auto;html=1;entryX=0.5;entryY=0;entryDx=0;entryDy=0;" parent="UgdYV5Sys4c05eqZEx1u-31" source="UgdYV5Sys4c05eqZEx1u-77" target="UgdYV5Sys4c05eqZEx1u-78" edge="1">
          <mxGeometry relative="1" as="geometry" />
        </mxCell>
        <mxCell id="UgdYV5Sys4c05eqZEx1u-77" value="平台操作员登录" style="whiteSpace=wrap;html=1;" parent="UgdYV5Sys4c05eqZEx1u-31" vertex="1">
          <mxGeometry x="60" y="130" width="120" height="60" as="geometry" />
        </mxCell>
        <mxCell id="UgdYV5Sys4c05eqZEx1u-107" style="edgeStyle=orthogonalEdgeStyle;rounded=0;orthogonalLoop=1;jettySize=auto;html=1;entryX=0.5;entryY=0;entryDx=0;entryDy=0;" parent="UgdYV5Sys4c05eqZEx1u-31" source="UgdYV5Sys4c05eqZEx1u-78" target="UgdYV5Sys4c05eqZEx1u-106" edge="1">
          <mxGeometry relative="1" as="geometry" />
        </mxCell>
        <mxCell id="UgdYV5Sys4c05eqZEx1u-78" value="进入创建单位界面" style="whiteSpace=wrap;html=1;" parent="UgdYV5Sys4c05eqZEx1u-31" vertex="1">
          <mxGeometry x="60" y="230" width="120" height="60" as="geometry" />
        </mxCell>
        <mxCell id="UgdYV5Sys4c05eqZEx1u-76" value="打开网页" style="ellipse;whiteSpace=wrap;html=1;" parent="UgdYV5Sys4c05eqZEx1u-31" vertex="1">
          <mxGeometry x="65" y="40" width="110" height="60" as="geometry" />
        </mxCell>
        <mxCell id="UgdYV5Sys4c05eqZEx1u-79" style="edgeStyle=orthogonalEdgeStyle;rounded=0;orthogonalLoop=1;jettySize=auto;html=1;entryX=0.5;entryY=0;entryDx=0;entryDy=0;" parent="UgdYV5Sys4c05eqZEx1u-31" source="UgdYV5Sys4c05eqZEx1u-76" target="UgdYV5Sys4c05eqZEx1u-77" edge="1">
          <mxGeometry relative="1" as="geometry" />
        </mxCell>
        <mxCell id="87xFtUxxgs9xbds1OP3f-32" style="edgeStyle=orthogonalEdgeStyle;rounded=0;orthogonalLoop=1;jettySize=auto;html=1;" parent="UgdYV5Sys4c05eqZEx1u-31" source="UgdYV5Sys4c05eqZEx1u-105" target="UgdYV5Sys4c05eqZEx1u-123" edge="1">
          <mxGeometry relative="1" as="geometry" />
        </mxCell>
        <mxCell id="UgdYV5Sys4c05eqZEx1u-105" value="单位管理员登录" style="whiteSpace=wrap;html=1;" parent="UgdYV5Sys4c05eqZEx1u-31" vertex="1">
          <mxGeometry x="60" y="660" width="120" height="60" as="geometry" />
        </mxCell>
        <mxCell id="UgdYV5Sys4c05eqZEx1u-106" value="退出操作员账号" style="whiteSpace=wrap;html=1;" parent="UgdYV5Sys4c05eqZEx1u-31" vertex="1">
          <mxGeometry x="60" y="340" width="120" height="60" as="geometry" />
        </mxCell>
        <mxCell id="87xFtUxxgs9xbds1OP3f-33" style="edgeStyle=orthogonalEdgeStyle;rounded=0;orthogonalLoop=1;jettySize=auto;html=1;entryX=0.5;entryY=0;entryDx=0;entryDy=0;" parent="UgdYV5Sys4c05eqZEx1u-31" source="UgdYV5Sys4c05eqZEx1u-123" target="UgdYV5Sys4c05eqZEx1u-127" edge="1">
          <mxGeometry relative="1" as="geometry" />
        </mxCell>
        <mxCell id="UgdYV5Sys4c05eqZEx1u-123" value="创建账户（未绑定钱包）" style="whiteSpace=wrap;html=1;" parent="UgdYV5Sys4c05eqZEx1u-31" vertex="1">
          <mxGeometry x="60" y="780" width="120" height="60" as="geometry" />
        </mxCell>
        <mxCell id="UgdYV5Sys4c05eqZEx1u-127" value="生成账户二维码" style="whiteSpace=wrap;html=1;" parent="UgdYV5Sys4c05eqZEx1u-31" vertex="1">
          <mxGeometry x="60" y="910" width="120" height="60" as="geometry" />
        </mxCell>
        <mxCell id="87xFtUxxgs9xbds1OP3f-43" style="edgeStyle=orthogonalEdgeStyle;rounded=0;orthogonalLoop=1;jettySize=auto;html=1;entryX=1;entryY=0.5;entryDx=0;entryDy=0;entryPerimeter=0;" parent="UgdYV5Sys4c05eqZEx1u-29" source="UgdYV5Sys4c05eqZEx1u-123" target="87xFtUxxgs9xbds1OP3f-42" edge="1">
          <mxGeometry relative="1" as="geometry" />
        </mxCell>
        <mxCell id="87xFtUxxgs9xbds1OP3f-41" style="edgeStyle=orthogonalEdgeStyle;rounded=0;orthogonalLoop=1;jettySize=auto;html=1;entryX=0.5;entryY=0;entryDx=0;entryDy=0;" parent="UgdYV5Sys4c05eqZEx1u-29" source="87xFtUxxgs9xbds1OP3f-35" target="87xFtUxxgs9xbds1OP3f-44" edge="1">
          <mxGeometry relative="1" as="geometry">
            <mxPoint x="373" y="1790" as="targetPoint" />
            <Array as="points">
              <mxPoint x="170" y="2050" />
              <mxPoint x="471" y="2050" />
            </Array>
          </mxGeometry>
        </mxCell>
        <mxCell id="UgdYV5Sys4c05eqZEx1u-116" style="edgeStyle=orthogonalEdgeStyle;rounded=0;orthogonalLoop=1;jettySize=auto;html=1;entryX=0;entryY=0.75;entryDx=0;entryDy=0;" parent="1" source="UgdYV5Sys4c05eqZEx1u-112" target="UgdYV5Sys4c05eqZEx1u-110" edge="1">
          <mxGeometry relative="1" as="geometry">
            <Array as="points">
              <mxPoint x="1343.5" y="170" />
              <mxPoint x="1463.5" y="170" />
              <mxPoint x="1463.5" y="145" />
            </Array>
          </mxGeometry>
        </mxCell>
        <mxCell id="UgdYV5Sys4c05eqZEx1u-117" style="edgeStyle=orthogonalEdgeStyle;rounded=0;orthogonalLoop=1;jettySize=auto;html=1;entryX=1;entryY=0.5;entryDx=0;entryDy=0;" parent="1" source="UgdYV5Sys4c05eqZEx1u-110" target="UgdYV5Sys4c05eqZEx1u-112" edge="1">
          <mxGeometry relative="1" as="geometry">
            <Array as="points">
              <mxPoint x="1493.5" y="120" />
              <mxPoint x="1493.5" y="120" />
            </Array>
          </mxGeometry>
        </mxCell>
        <mxCell id="UgdYV5Sys4c05eqZEx1u-114" style="edgeStyle=orthogonalEdgeStyle;rounded=0;orthogonalLoop=1;jettySize=auto;html=1;" parent="1" source="UgdYV5Sys4c05eqZEx1u-112" target="UgdYV5Sys4c05eqZEx1u-113" edge="1">
          <mxGeometry relative="1" as="geometry" />
        </mxCell>
        <mxCell id="UgdYV5Sys4c05eqZEx1u-112" value="设备创建&lt;br&gt;成功？" style="rhombus;whiteSpace=wrap;html=1;" parent="1" vertex="1">
          <mxGeometry x="1303.5" y="80" width="80" height="80" as="geometry" />
        </mxCell>
        <mxCell id="UgdYV5Sys4c05eqZEx1u-113" value="保存设备信息" style="strokeWidth=2;html=1;shape=mxgraph.flowchart.direct_data;whiteSpace=wrap;" parent="1" vertex="1">
          <mxGeometry x="1278.5" y="200" width="130" height="60" as="geometry" />
        </mxCell>
        <mxCell id="UgdYV5Sys4c05eqZEx1u-118" value="提交数据" style="text;html=1;align=center;verticalAlign=middle;resizable=0;points=[];autosize=1;" parent="1" vertex="1">
          <mxGeometry x="1394.75" y="90" width="60" height="20" as="geometry" />
        </mxCell>
        <mxCell id="UgdYV5Sys4c05eqZEx1u-119" value="返回结果" style="text;html=1;align=center;verticalAlign=middle;resizable=0;points=[];autosize=1;" parent="1" vertex="1">
          <mxGeometry x="1394.75" y="140" width="60" height="20" as="geometry" />
        </mxCell>
        <mxCell id="UgdYV5Sys4c05eqZEx1u-110" value="创建设备档案" style="whiteSpace=wrap;html=1;" parent="1" vertex="1">
          <mxGeometry x="1523.5" y="100" width="120" height="60" as="geometry" />
        </mxCell>
        <mxCell id="UgdYV5Sys4c05eqZEx1u-120" value="成功" style="text;html=1;align=center;verticalAlign=middle;resizable=0;points=[];autosize=1;" parent="1" vertex="1">
          <mxGeometry x="1303.5" y="170" width="40" height="20" as="geometry" />
        </mxCell>
        <mxCell id="87xFtUxxgs9xbds1OP3f-39" value="不存在" style="text;html=1;align=center;verticalAlign=middle;resizable=0;points=[];autosize=1;" parent="1" vertex="1">
          <mxGeometry x="645" y="1620" width="50" height="20" as="geometry" />
        </mxCell>
        <mxCell id="87xFtUxxgs9xbds1OP3f-49" value="已绑定" style="text;html=1;align=center;verticalAlign=middle;resizable=0;points=[];autosize=1;" parent="1" vertex="1">
          <mxGeometry x="535.45" y="2240" width="50" height="20" as="geometry" />
        </mxCell>
        <mxCell id="87xFtUxxgs9xbds1OP3f-60" style="edgeStyle=orthogonalEdgeStyle;rounded=0;orthogonalLoop=1;jettySize=auto;html=1;entryX=0;entryY=0.75;entryDx=0;entryDy=0;" parent="1" source="87xFtUxxgs9xbds1OP3f-63" target="87xFtUxxgs9xbds1OP3f-67" edge="1">
          <mxGeometry relative="1" as="geometry">
            <Array as="points">
              <mxPoint x="1343.5" y="390" />
              <mxPoint x="1463.5" y="390" />
              <mxPoint x="1463.5" y="365" />
            </Array>
          </mxGeometry>
        </mxCell>
        <mxCell id="87xFtUxxgs9xbds1OP3f-61" style="edgeStyle=orthogonalEdgeStyle;rounded=0;orthogonalLoop=1;jettySize=auto;html=1;entryX=1;entryY=0.5;entryDx=0;entryDy=0;" parent="1" source="87xFtUxxgs9xbds1OP3f-67" target="87xFtUxxgs9xbds1OP3f-63" edge="1">
          <mxGeometry relative="1" as="geometry">
            <Array as="points">
              <mxPoint x="1493.5" y="340" />
              <mxPoint x="1493.5" y="340" />
            </Array>
          </mxGeometry>
        </mxCell>
        <mxCell id="87xFtUxxgs9xbds1OP3f-62" style="edgeStyle=orthogonalEdgeStyle;rounded=0;orthogonalLoop=1;jettySize=auto;html=1;" parent="1" source="87xFtUxxgs9xbds1OP3f-63" target="87xFtUxxgs9xbds1OP3f-64" edge="1">
          <mxGeometry relative="1" as="geometry" />
        </mxCell>
        <mxCell id="87xFtUxxgs9xbds1OP3f-63" value="方案创建&lt;br&gt;成功？" style="rhombus;whiteSpace=wrap;html=1;" parent="1" vertex="1">
          <mxGeometry x="1303.5" y="300" width="80" height="80" as="geometry" />
        </mxCell>
        <mxCell id="87xFtUxxgs9xbds1OP3f-64" value="保存设备信息" style="strokeWidth=2;html=1;shape=mxgraph.flowchart.direct_data;whiteSpace=wrap;" parent="1" vertex="1">
          <mxGeometry x="1278.5" y="420" width="130" height="60" as="geometry" />
        </mxCell>
        <mxCell id="87xFtUxxgs9xbds1OP3f-65" value="提交数据" style="text;html=1;align=center;verticalAlign=middle;resizable=0;points=[];autosize=1;" parent="1" vertex="1">
          <mxGeometry x="1394.75" y="310" width="60" height="20" as="geometry" />
        </mxCell>
        <mxCell id="87xFtUxxgs9xbds1OP3f-66" value="返回结果" style="text;html=1;align=center;verticalAlign=middle;resizable=0;points=[];autosize=1;" parent="1" vertex="1">
          <mxGeometry x="1394.75" y="360" width="60" height="20" as="geometry" />
        </mxCell>
        <mxCell id="87xFtUxxgs9xbds1OP3f-67" value="创建计费方案" style="whiteSpace=wrap;html=1;" parent="1" vertex="1">
          <mxGeometry x="1523.5" y="320" width="120" height="60" as="geometry" />
        </mxCell>
        <mxCell id="87xFtUxxgs9xbds1OP3f-68" value="成功" style="text;html=1;align=center;verticalAlign=middle;resizable=0;points=[];autosize=1;" parent="1" vertex="1">
          <mxGeometry x="1303.5" y="390" width="40" height="20" as="geometry" />
        </mxCell>
        <mxCell id="87xFtUxxgs9xbds1OP3f-75" value="分户绑定" style="shape=step;perimeter=stepPerimeter;whiteSpace=wrap;html=1;fixedSize=1;" parent="1" vertex="1">
          <mxGeometry x="1334" y="930" width="120" height="80" as="geometry" />
        </mxCell>
        <mxCell id="87xFtUxxgs9xbds1OP3f-76" value="主户绑定" style="shape=step;perimeter=stepPerimeter;whiteSpace=wrap;html=1;fixedSize=1;" parent="1" vertex="1">
          <mxGeometry x="1234" y="930" width="120" height="80" as="geometry" />
        </mxCell>
        <mxCell id="87xFtUxxgs9xbds1OP3f-87" style="edgeStyle=orthogonalEdgeStyle;rounded=0;orthogonalLoop=1;jettySize=auto;html=1;entryX=0.5;entryY=1;entryDx=0;entryDy=0;" parent="1" source="87xFtUxxgs9xbds1OP3f-77" target="87xFtUxxgs9xbds1OP3f-76" edge="1">
          <mxGeometry relative="1" as="geometry">
            <Array as="points">
              <mxPoint x="1594" y="1100" />
              <mxPoint x="1294" y="1100" />
            </Array>
          </mxGeometry>
        </mxCell>
        <mxCell id="87xFtUxxgs9xbds1OP3f-77" value="主户解绑" style="shape=step;perimeter=stepPerimeter;whiteSpace=wrap;html=1;fixedSize=1;" parent="1" vertex="1">
          <mxGeometry x="1534" y="930" width="120" height="80" as="geometry" />
        </mxCell>
        <mxCell id="87xFtUxxgs9xbds1OP3f-86" style="edgeStyle=orthogonalEdgeStyle;rounded=0;orthogonalLoop=1;jettySize=auto;html=1;entryX=0.5;entryY=1;entryDx=0;entryDy=0;" parent="1" source="87xFtUxxgs9xbds1OP3f-78" target="87xFtUxxgs9xbds1OP3f-75" edge="1">
          <mxGeometry relative="1" as="geometry">
            <Array as="points">
              <mxPoint x="1494" y="1050" />
              <mxPoint x="1394" y="1050" />
            </Array>
          </mxGeometry>
        </mxCell>
        <mxCell id="87xFtUxxgs9xbds1OP3f-78" value="分户解绑" style="shape=step;perimeter=stepPerimeter;whiteSpace=wrap;html=1;fixedSize=1;" parent="1" vertex="1">
          <mxGeometry x="1433" y="930" width="120" height="80" as="geometry" />
        </mxCell>
        <mxCell id="87xFtUxxgs9xbds1OP3f-80" value="创建账户" style="shape=hexagon;perimeter=hexagonPerimeter2;whiteSpace=wrap;html=1;fixedSize=1;" parent="1" vertex="1">
          <mxGeometry x="1140" y="930" width="120" height="80" as="geometry" />
        </mxCell>
        <mxCell id="87xFtUxxgs9xbds1OP3f-88" style="edgeStyle=orthogonalEdgeStyle;rounded=0;orthogonalLoop=1;jettySize=auto;html=1;entryX=0.5;entryY=1;entryDx=0;entryDy=0;" parent="1" source="87xFtUxxgs9xbds1OP3f-81" target="87xFtUxxgs9xbds1OP3f-80" edge="1">
          <mxGeometry relative="1" as="geometry">
            <Array as="points">
              <mxPoint x="1689" y="1150" />
              <mxPoint x="1200" y="1150" />
            </Array>
          </mxGeometry>
        </mxCell>
        <mxCell id="87xFtUxxgs9xbds1OP3f-81" value="删除账户" style="shape=step;perimeter=stepPerimeter;whiteSpace=wrap;html=1;fixedSize=1;" parent="1" vertex="1">
          <mxGeometry x="1629" y="930" width="120" height="80" as="geometry" />
        </mxCell>
        <mxCell id="87xFtUxxgs9xbds1OP3f-89" value="钱包" style="whiteSpace=wrap;html=1;" parent="1" vertex="1">
          <mxGeometry x="1401" y="1220" width="120" height="60" as="geometry" />
        </mxCell>
        <mxCell id="87xFtUxxgs9xbds1OP3f-94" style="edgeStyle=orthogonalEdgeStyle;rounded=0;orthogonalLoop=1;jettySize=auto;html=1;entryX=0.5;entryY=1;entryDx=0;entryDy=0;" parent="1" source="87xFtUxxgs9xbds1OP3f-90" target="87xFtUxxgs9xbds1OP3f-89" edge="1">
          <mxGeometry relative="1" as="geometry">
            <Array as="points">
              <mxPoint x="1301" y="1320" />
              <mxPoint x="1461" y="1320" />
            </Array>
          </mxGeometry>
        </mxCell>
        <mxCell id="87xFtUxxgs9xbds1OP3f-90" value="主户&lt;br&gt;A" style="whiteSpace=wrap;html=1;" parent="1" vertex="1">
          <mxGeometry x="1241" y="1360" width="120" height="60" as="geometry" />
        </mxCell>
        <mxCell id="87xFtUxxgs9xbds1OP3f-95" style="edgeStyle=orthogonalEdgeStyle;rounded=0;orthogonalLoop=1;jettySize=auto;html=1;entryX=0.5;entryY=1;entryDx=0;entryDy=0;" parent="1" source="87xFtUxxgs9xbds1OP3f-91" target="87xFtUxxgs9xbds1OP3f-89" edge="1">
          <mxGeometry relative="1" as="geometry" />
        </mxCell>
        <mxCell id="87xFtUxxgs9xbds1OP3f-91" value="分户&lt;br&gt;B" style="whiteSpace=wrap;html=1;" parent="1" vertex="1">
          <mxGeometry x="1401" y="1360" width="120" height="60" as="geometry" />
        </mxCell>
        <mxCell id="87xFtUxxgs9xbds1OP3f-96" style="edgeStyle=orthogonalEdgeStyle;rounded=0;orthogonalLoop=1;jettySize=auto;html=1;entryX=0.5;entryY=1;entryDx=0;entryDy=0;" parent="1" source="87xFtUxxgs9xbds1OP3f-92" target="87xFtUxxgs9xbds1OP3f-89" edge="1">
          <mxGeometry relative="1" as="geometry">
            <Array as="points">
              <mxPoint x="1616" y="1320" />
              <mxPoint x="1461" y="1320" />
            </Array>
          </mxGeometry>
        </mxCell>
        <mxCell id="87xFtUxxgs9xbds1OP3f-92" value="分户&lt;br&gt;C" style="whiteSpace=wrap;html=1;" parent="1" vertex="1">
          <mxGeometry x="1556" y="1360" width="120" height="60" as="geometry" />
        </mxCell>
        <mxCell id="87xFtUxxgs9xbds1OP3f-97" value="钱包" style="whiteSpace=wrap;html=1;" parent="1" vertex="1">
          <mxGeometry x="1396" y="1470" width="120" height="60" as="geometry" />
        </mxCell>
        <mxCell id="87xFtUxxgs9xbds1OP3f-100" style="edgeStyle=orthogonalEdgeStyle;rounded=0;orthogonalLoop=1;jettySize=auto;html=1;entryX=0.5;entryY=1;entryDx=0;entryDy=0;" parent="1" source="87xFtUxxgs9xbds1OP3f-101" target="87xFtUxxgs9xbds1OP3f-97" edge="1">
          <mxGeometry relative="1" as="geometry" />
        </mxCell>
        <mxCell id="87xFtUxxgs9xbds1OP3f-101" value="分户&lt;br&gt;B" style="whiteSpace=wrap;html=1;" parent="1" vertex="1">
          <mxGeometry x="1396" y="1610" width="120" height="60" as="geometry" />
        </mxCell>
        <mxCell id="87xFtUxxgs9xbds1OP3f-102" style="edgeStyle=orthogonalEdgeStyle;rounded=0;orthogonalLoop=1;jettySize=auto;html=1;entryX=0.5;entryY=1;entryDx=0;entryDy=0;" parent="1" source="87xFtUxxgs9xbds1OP3f-103" target="87xFtUxxgs9xbds1OP3f-97" edge="1">
          <mxGeometry relative="1" as="geometry">
            <Array as="points">
              <mxPoint x="1611" y="1570" />
              <mxPoint x="1456" y="1570" />
            </Array>
          </mxGeometry>
        </mxCell>
        <mxCell id="87xFtUxxgs9xbds1OP3f-103" value="分户&lt;br&gt;C" style="whiteSpace=wrap;html=1;" parent="1" vertex="1">
          <mxGeometry x="1551" y="1610" width="120" height="60" as="geometry" />
        </mxCell>
        <mxCell id="aW6AQjTK__uvghRcb7WH-1" value="&lt;a class=&quot;js-navigation-open link-gray-dark&quot; title=&quot;综合能源用户注册方案（v1.0）.drawio&quot; href=&quot;https://github.com/54czp/UML/blob/main/%E7%BB%BC%E5%90%88%E8%83%BD%E6%BA%90%E7%94%A8%E6%88%B7%E6%B3%A8%E5%86%8C%E6%96%B9%E6%A1%88%EF%BC%88v1.0%EF%BC%89.drawio&quot; style=&quot;box-sizing: border-box ; background-color: rgb(255 , 255 , 255)&quot;&gt;&lt;font style=&quot;font-size: 24px&quot;&gt;综合能源用户注册方案（v1.0）&lt;/font&gt;&lt;/a&gt;" style="text;html=1;align=center;verticalAlign=middle;resizable=0;points=[];autosize=1;" parent="1" vertex="1">
          <mxGeometry x="455" y="30" width="350" height="20" as="geometry" />
        </mxCell>
        <mxCell id="b-ZQdXZkgw-ZfgGD9ODn-19" value="&lt;span&gt;账户信息（聚合对象）：&lt;br&gt;单位id、&lt;br&gt;设备id、&lt;br&gt;主户id、&lt;br&gt;账户id、&lt;br&gt;计费方案id（待确定）&lt;br&gt;&lt;br&gt;&lt;/span&gt;" style="shape=parallelogram;html=1;strokeWidth=2;perimeter=parallelogramPerimeter;whiteSpace=wrap;rounded=1;arcSize=12;size=0.23;" vertex="1" parent="1">
          <mxGeometry x="1278.5" y="515" width="231.5" height="140" as="geometry" />
        </mxCell>
        <mxCell id="b-ZQdXZkgw-ZfgGD9ODn-20" value="绑定计费方案" style="shape=step;perimeter=stepPerimeter;whiteSpace=wrap;html=1;fixedSize=1;" vertex="1" parent="1">
          <mxGeometry x="1334" y="750" width="120" height="80" as="geometry" />
        </mxCell>
        <mxCell id="b-ZQdXZkgw-ZfgGD9ODn-21" value="绑定设备" style="shape=step;perimeter=stepPerimeter;whiteSpace=wrap;html=1;fixedSize=1;" vertex="1" parent="1">
          <mxGeometry x="1234" y="750" width="120" height="80" as="geometry" />
        </mxCell>
        <mxCell id="b-ZQdXZkgw-ZfgGD9ODn-22" value="用户绑定" style="shape=step;perimeter=stepPerimeter;whiteSpace=wrap;html=1;fixedSize=1;" vertex="1" parent="1">
          <mxGeometry x="1534" y="750" width="120" height="80" as="geometry" />
        </mxCell>
        <mxCell id="b-ZQdXZkgw-ZfgGD9ODn-24" value="生成二维码" style="shape=step;perimeter=stepPerimeter;whiteSpace=wrap;html=1;fixedSize=1;" vertex="1" parent="1">
          <mxGeometry x="1433" y="750" width="120" height="80" as="geometry" />
        </mxCell>
        <mxCell id="b-ZQdXZkgw-ZfgGD9ODn-25" value="创建账户" style="shape=hexagon;perimeter=hexagonPerimeter2;whiteSpace=wrap;html=1;fixedSize=1;" vertex="1" parent="1">
          <mxGeometry x="1140" y="750" width="120" height="80" as="geometry" />
        </mxCell>
        <mxCell id="b-ZQdXZkgw-ZfgGD9ODn-26" value="抄低度开户" style="shape=step;perimeter=stepPerimeter;whiteSpace=wrap;html=1;fixedSize=1;" vertex="1" parent="1">
          <mxGeometry x="1629" y="750" width="120" height="80" as="geometry" />
        </mxCell>
      </root>
    </mxGraphModel>
  </diagram>
  <diagram id="jNhnjqaaECfKXECmkGS0" name="Page-2">
    <mxGraphModel dx="1108" dy="433" grid="1" gridSize="10" guides="1" tooltips="1" connect="1" arrows="1" fold="1" page="1" pageScale="1" pageWidth="827" pageHeight="1169" math="0" shadow="0">
      <root>
        <mxCell id="m9xMKLLqCsPfs7PHP-6N-0" />
        <mxCell id="m9xMKLLqCsPfs7PHP-6N-1" parent="m9xMKLLqCsPfs7PHP-6N-0" />
        <mxCell id="s-bFfvfui71i_J7R5cKx-0" value="&lt;font style=&quot;font-size: 24px&quot;&gt;实体关系图&lt;/font&gt;" style="text;html=1;align=center;verticalAlign=middle;resizable=0;points=[];autosize=1;" vertex="1" parent="m9xMKLLqCsPfs7PHP-6N-1">
          <mxGeometry x="200" y="40" width="140" height="20" as="geometry" />
        </mxCell>
        <mxCell id="ohJHQoJmDfSmR-yKIUeT-4" value="Table" style="shape=table;startSize=30;container=1;collapsible=1;childLayout=tableLayout;fixedRows=1;rowLines=0;fontStyle=1;align=center;resizeLast=1;" vertex="1" parent="m9xMKLLqCsPfs7PHP-6N-1">
          <mxGeometry x="320" y="110" width="180" height="160" as="geometry" />
        </mxCell>
        <mxCell id="ohJHQoJmDfSmR-yKIUeT-5" value="" style="shape=partialRectangle;collapsible=0;dropTarget=0;pointerEvents=0;fillColor=none;top=0;left=0;bottom=1;right=0;points=[[0,0.5],[1,0.5]];portConstraint=eastwest;" vertex="1" parent="ohJHQoJmDfSmR-yKIUeT-4">
          <mxGeometry y="30" width="180" height="30" as="geometry" />
        </mxCell>
        <mxCell id="ohJHQoJmDfSmR-yKIUeT-6" value="PK" style="shape=partialRectangle;connectable=0;fillColor=none;top=0;left=0;bottom=0;right=0;fontStyle=1;overflow=hidden;" vertex="1" parent="ohJHQoJmDfSmR-yKIUeT-5">
          <mxGeometry width="30" height="30" as="geometry" />
        </mxCell>
        <mxCell id="ohJHQoJmDfSmR-yKIUeT-7" value="UniqueID" style="shape=partialRectangle;connectable=0;fillColor=none;top=0;left=0;bottom=0;right=0;align=left;spacingLeft=6;fontStyle=5;overflow=hidden;" vertex="1" parent="ohJHQoJmDfSmR-yKIUeT-5">
          <mxGeometry x="30" width="150" height="30" as="geometry" />
        </mxCell>
        <mxCell id="ohJHQoJmDfSmR-yKIUeT-8" value="" style="shape=partialRectangle;collapsible=0;dropTarget=0;pointerEvents=0;fillColor=none;top=0;left=0;bottom=0;right=0;points=[[0,0.5],[1,0.5]];portConstraint=eastwest;" vertex="1" parent="ohJHQoJmDfSmR-yKIUeT-4">
          <mxGeometry y="60" width="180" height="30" as="geometry" />
        </mxCell>
        <mxCell id="ohJHQoJmDfSmR-yKIUeT-9" value="" style="shape=partialRectangle;connectable=0;fillColor=none;top=0;left=0;bottom=0;right=0;editable=1;overflow=hidden;" vertex="1" parent="ohJHQoJmDfSmR-yKIUeT-8">
          <mxGeometry width="30" height="30" as="geometry" />
        </mxCell>
        <mxCell id="ohJHQoJmDfSmR-yKIUeT-10" value="Row 1" style="shape=partialRectangle;connectable=0;fillColor=none;top=0;left=0;bottom=0;right=0;align=left;spacingLeft=6;overflow=hidden;" vertex="1" parent="ohJHQoJmDfSmR-yKIUeT-8">
          <mxGeometry x="30" width="150" height="30" as="geometry" />
        </mxCell>
        <mxCell id="ohJHQoJmDfSmR-yKIUeT-11" value="" style="shape=partialRectangle;collapsible=0;dropTarget=0;pointerEvents=0;fillColor=none;top=0;left=0;bottom=0;right=0;points=[[0,0.5],[1,0.5]];portConstraint=eastwest;" vertex="1" parent="ohJHQoJmDfSmR-yKIUeT-4">
          <mxGeometry y="90" width="180" height="30" as="geometry" />
        </mxCell>
        <mxCell id="ohJHQoJmDfSmR-yKIUeT-12" value="" style="shape=partialRectangle;connectable=0;fillColor=none;top=0;left=0;bottom=0;right=0;editable=1;overflow=hidden;" vertex="1" parent="ohJHQoJmDfSmR-yKIUeT-11">
          <mxGeometry width="30" height="30" as="geometry" />
        </mxCell>
        <mxCell id="ohJHQoJmDfSmR-yKIUeT-13" value="Row 2" style="shape=partialRectangle;connectable=0;fillColor=none;top=0;left=0;bottom=0;right=0;align=left;spacingLeft=6;overflow=hidden;" vertex="1" parent="ohJHQoJmDfSmR-yKIUeT-11">
          <mxGeometry x="30" width="150" height="30" as="geometry" />
        </mxCell>
        <mxCell id="ohJHQoJmDfSmR-yKIUeT-14" value="" style="shape=partialRectangle;collapsible=0;dropTarget=0;pointerEvents=0;fillColor=none;top=0;left=0;bottom=0;right=0;points=[[0,0.5],[1,0.5]];portConstraint=eastwest;" vertex="1" parent="ohJHQoJmDfSmR-yKIUeT-4">
          <mxGeometry y="120" width="180" height="30" as="geometry" />
        </mxCell>
        <mxCell id="ohJHQoJmDfSmR-yKIUeT-15" value="" style="shape=partialRectangle;connectable=0;fillColor=none;top=0;left=0;bottom=0;right=0;editable=1;overflow=hidden;" vertex="1" parent="ohJHQoJmDfSmR-yKIUeT-14">
          <mxGeometry width="30" height="30" as="geometry" />
        </mxCell>
        <mxCell id="ohJHQoJmDfSmR-yKIUeT-16" value="Row 3" style="shape=partialRectangle;connectable=0;fillColor=none;top=0;left=0;bottom=0;right=0;align=left;spacingLeft=6;overflow=hidden;" vertex="1" parent="ohJHQoJmDfSmR-yKIUeT-14">
          <mxGeometry x="30" width="150" height="30" as="geometry" />
        </mxCell>
        <mxCell id="ohJHQoJmDfSmR-yKIUeT-17" value="Table" style="shape=table;startSize=30;container=1;collapsible=1;childLayout=tableLayout;fixedRows=1;rowLines=0;fontStyle=1;align=center;resizeLast=1;" vertex="1" parent="m9xMKLLqCsPfs7PHP-6N-1">
          <mxGeometry x="530" y="110" width="180" height="160" as="geometry" />
        </mxCell>
        <mxCell id="ohJHQoJmDfSmR-yKIUeT-18" value="" style="shape=partialRectangle;collapsible=0;dropTarget=0;pointerEvents=0;fillColor=none;top=0;left=0;bottom=0;right=0;points=[[0,0.5],[1,0.5]];portConstraint=eastwest;" vertex="1" parent="ohJHQoJmDfSmR-yKIUeT-17">
          <mxGeometry y="30" width="180" height="30" as="geometry" />
        </mxCell>
        <mxCell id="ohJHQoJmDfSmR-yKIUeT-19" value="PK,FK1" style="shape=partialRectangle;connectable=0;fillColor=none;top=0;left=0;bottom=0;right=0;fontStyle=1;overflow=hidden;" vertex="1" parent="ohJHQoJmDfSmR-yKIUeT-18">
          <mxGeometry width="60" height="30" as="geometry" />
        </mxCell>
        <mxCell id="ohJHQoJmDfSmR-yKIUeT-20" value="Row 1" style="shape=partialRectangle;connectable=0;fillColor=none;top=0;left=0;bottom=0;right=0;align=left;spacingLeft=6;fontStyle=5;overflow=hidden;" vertex="1" parent="ohJHQoJmDfSmR-yKIUeT-18">
          <mxGeometry x="60" width="120" height="30" as="geometry" />
        </mxCell>
        <mxCell id="ohJHQoJmDfSmR-yKIUeT-21" value="" style="shape=partialRectangle;collapsible=0;dropTarget=0;pointerEvents=0;fillColor=none;top=0;left=0;bottom=1;right=0;points=[[0,0.5],[1,0.5]];portConstraint=eastwest;" vertex="1" parent="ohJHQoJmDfSmR-yKIUeT-17">
          <mxGeometry y="60" width="180" height="30" as="geometry" />
        </mxCell>
        <mxCell id="ohJHQoJmDfSmR-yKIUeT-22" value="PK,FK2" style="shape=partialRectangle;connectable=0;fillColor=none;top=0;left=0;bottom=0;right=0;fontStyle=1;overflow=hidden;" vertex="1" parent="ohJHQoJmDfSmR-yKIUeT-21">
          <mxGeometry width="60" height="30" as="geometry" />
        </mxCell>
        <mxCell id="ohJHQoJmDfSmR-yKIUeT-23" value="Row 2" style="shape=partialRectangle;connectable=0;fillColor=none;top=0;left=0;bottom=0;right=0;align=left;spacingLeft=6;fontStyle=5;overflow=hidden;" vertex="1" parent="ohJHQoJmDfSmR-yKIUeT-21">
          <mxGeometry x="60" width="120" height="30" as="geometry" />
        </mxCell>
        <mxCell id="ohJHQoJmDfSmR-yKIUeT-24" value="" style="shape=partialRectangle;collapsible=0;dropTarget=0;pointerEvents=0;fillColor=none;top=0;left=0;bottom=0;right=0;points=[[0,0.5],[1,0.5]];portConstraint=eastwest;" vertex="1" parent="ohJHQoJmDfSmR-yKIUeT-17">
          <mxGeometry y="90" width="180" height="30" as="geometry" />
        </mxCell>
        <mxCell id="ohJHQoJmDfSmR-yKIUeT-25" value="" style="shape=partialRectangle;connectable=0;fillColor=none;top=0;left=0;bottom=0;right=0;editable=1;overflow=hidden;" vertex="1" parent="ohJHQoJmDfSmR-yKIUeT-24">
          <mxGeometry width="60" height="30" as="geometry" />
        </mxCell>
        <mxCell id="ohJHQoJmDfSmR-yKIUeT-26" value="Row 3" style="shape=partialRectangle;connectable=0;fillColor=none;top=0;left=0;bottom=0;right=0;align=left;spacingLeft=6;overflow=hidden;" vertex="1" parent="ohJHQoJmDfSmR-yKIUeT-24">
          <mxGeometry x="60" width="120" height="30" as="geometry" />
        </mxCell>
        <mxCell id="ohJHQoJmDfSmR-yKIUeT-27" value="" style="shape=partialRectangle;collapsible=0;dropTarget=0;pointerEvents=0;fillColor=none;top=0;left=0;bottom=0;right=0;points=[[0,0.5],[1,0.5]];portConstraint=eastwest;" vertex="1" parent="ohJHQoJmDfSmR-yKIUeT-17">
          <mxGeometry y="120" width="180" height="30" as="geometry" />
        </mxCell>
        <mxCell id="ohJHQoJmDfSmR-yKIUeT-28" value="" style="shape=partialRectangle;connectable=0;fillColor=none;top=0;left=0;bottom=0;right=0;editable=1;overflow=hidden;" vertex="1" parent="ohJHQoJmDfSmR-yKIUeT-27">
          <mxGeometry width="60" height="30" as="geometry" />
        </mxCell>
        <mxCell id="ohJHQoJmDfSmR-yKIUeT-29" value="Row 4" style="shape=partialRectangle;connectable=0;fillColor=none;top=0;left=0;bottom=0;right=0;align=left;spacingLeft=6;overflow=hidden;" vertex="1" parent="ohJHQoJmDfSmR-yKIUeT-27">
          <mxGeometry x="60" width="120" height="30" as="geometry" />
        </mxCell>
        <mxCell id="ohJHQoJmDfSmR-yKIUeT-30" value="Entity" style="swimlane;childLayout=stackLayout;horizontal=1;startSize=30;horizontalStack=0;rounded=1;fontSize=14;fontStyle=0;strokeWidth=2;resizeParent=0;resizeLast=1;shadow=0;dashed=0;align=center;" vertex="1" parent="m9xMKLLqCsPfs7PHP-6N-1">
          <mxGeometry x="320" y="340" width="160" height="120" as="geometry" />
        </mxCell>
        <mxCell id="ohJHQoJmDfSmR-yKIUeT-31" value="+Attribute1&#xa;+Attribute2&#xa;+Attribute3" style="align=left;strokeColor=none;fillColor=none;spacingLeft=4;fontSize=12;verticalAlign=top;resizable=0;rotatable=0;part=1;" vertex="1" parent="ohJHQoJmDfSmR-yKIUeT-30">
          <mxGeometry y="30" width="160" height="90" as="geometry" />
        </mxCell>
        <mxCell id="ohJHQoJmDfSmR-yKIUeT-32" value="Associative&#xa;Entity" style="shape=associativeEntity;whiteSpace=wrap;html=1;align=center;" vertex="1" parent="m9xMKLLqCsPfs7PHP-6N-1">
          <mxGeometry x="510" y="370" width="140" height="60" as="geometry" />
        </mxCell>
        <mxCell id="ohJHQoJmDfSmR-yKIUeT-33" value="Object" style="html=1;" vertex="1" parent="m9xMKLLqCsPfs7PHP-6N-1">
          <mxGeometry x="190" y="550" width="110" height="50" as="geometry" />
        </mxCell>
        <mxCell id="ohJHQoJmDfSmR-yKIUeT-34" value="&amp;laquo;interface&amp;raquo;&lt;br&gt;&lt;b&gt;Name&lt;/b&gt;" style="html=1;" vertex="1" parent="m9xMKLLqCsPfs7PHP-6N-1">
          <mxGeometry x="345" y="550" width="110" height="50" as="geometry" />
        </mxCell>
        <mxCell id="ohJHQoJmDfSmR-yKIUeT-35" value="Classname" style="swimlane;fontStyle=1;align=center;verticalAlign=top;childLayout=stackLayout;horizontal=1;startSize=26;horizontalStack=0;resizeParent=1;resizeParentMax=0;resizeLast=0;collapsible=1;marginBottom=0;" vertex="1" parent="m9xMKLLqCsPfs7PHP-6N-1">
          <mxGeometry x="520" y="532" width="160" height="86" as="geometry" />
        </mxCell>
        <mxCell id="ohJHQoJmDfSmR-yKIUeT-36" value="+ field: type" style="text;strokeColor=none;fillColor=none;align=left;verticalAlign=top;spacingLeft=4;spacingRight=4;overflow=hidden;rotatable=0;points=[[0,0.5],[1,0.5]];portConstraint=eastwest;" vertex="1" parent="ohJHQoJmDfSmR-yKIUeT-35">
          <mxGeometry y="26" width="160" height="26" as="geometry" />
        </mxCell>
        <mxCell id="ohJHQoJmDfSmR-yKIUeT-37" value="" style="line;strokeWidth=1;fillColor=none;align=left;verticalAlign=middle;spacingTop=-1;spacingLeft=3;spacingRight=3;rotatable=0;labelPosition=right;points=[];portConstraint=eastwest;" vertex="1" parent="ohJHQoJmDfSmR-yKIUeT-35">
          <mxGeometry y="52" width="160" height="8" as="geometry" />
        </mxCell>
        <mxCell id="ohJHQoJmDfSmR-yKIUeT-38" value="+ method(type): type" style="text;strokeColor=none;fillColor=none;align=left;verticalAlign=top;spacingLeft=4;spacingRight=4;overflow=hidden;rotatable=0;points=[[0,0.5],[1,0.5]];portConstraint=eastwest;" vertex="1" parent="ohJHQoJmDfSmR-yKIUeT-35">
          <mxGeometry y="60" width="160" height="26" as="geometry" />
        </mxCell>
        <mxCell id="ohJHQoJmDfSmR-yKIUeT-39" value="Classname" style="swimlane;fontStyle=0;childLayout=stackLayout;horizontal=1;startSize=26;fillColor=none;horizontalStack=0;resizeParent=1;resizeParentMax=0;resizeLast=0;collapsible=1;marginBottom=0;" vertex="1" parent="m9xMKLLqCsPfs7PHP-6N-1">
          <mxGeometry x="740" y="523" width="140" height="104" as="geometry" />
        </mxCell>
        <mxCell id="ohJHQoJmDfSmR-yKIUeT-40" value="+ field: type" style="text;strokeColor=none;fillColor=none;align=left;verticalAlign=top;spacingLeft=4;spacingRight=4;overflow=hidden;rotatable=0;points=[[0,0.5],[1,0.5]];portConstraint=eastwest;" vertex="1" parent="ohJHQoJmDfSmR-yKIUeT-39">
          <mxGeometry y="26" width="140" height="26" as="geometry" />
        </mxCell>
        <mxCell id="ohJHQoJmDfSmR-yKIUeT-41" value="+ field: type" style="text;strokeColor=none;fillColor=none;align=left;verticalAlign=top;spacingLeft=4;spacingRight=4;overflow=hidden;rotatable=0;points=[[0,0.5],[1,0.5]];portConstraint=eastwest;" vertex="1" parent="ohJHQoJmDfSmR-yKIUeT-39">
          <mxGeometry y="52" width="140" height="26" as="geometry" />
        </mxCell>
        <mxCell id="ohJHQoJmDfSmR-yKIUeT-42" value="+ field: type" style="text;strokeColor=none;fillColor=none;align=left;verticalAlign=top;spacingLeft=4;spacingRight=4;overflow=hidden;rotatable=0;points=[[0,0.5],[1,0.5]];portConstraint=eastwest;" vertex="1" parent="ohJHQoJmDfSmR-yKIUeT-39">
          <mxGeometry y="78" width="140" height="26" as="geometry" />
        </mxCell>
        <mxCell id="ohJHQoJmDfSmR-yKIUeT-43" value="&lt;p style=&quot;margin:0px;margin-top:4px;text-align:center;text-decoration:underline;&quot;&gt;&lt;b&gt;Object:Type&lt;/b&gt;&lt;/p&gt;&lt;hr/&gt;&lt;p style=&quot;margin:0px;margin-left:8px;&quot;&gt;field1 = value1&lt;br/&gt;field2 = value2&lt;br&gt;field3 = value3&lt;/p&gt;" style="verticalAlign=top;align=left;overflow=fill;fontSize=12;fontFamily=Helvetica;html=1;" vertex="1" parent="m9xMKLLqCsPfs7PHP-6N-1">
          <mxGeometry x="165" y="640" width="160" height="90" as="geometry" />
        </mxCell>
        <mxCell id="ohJHQoJmDfSmR-yKIUeT-44" value="Actor" style="shape=umlActor;verticalLabelPosition=bottom;verticalAlign=top;html=1;" vertex="1" parent="m9xMKLLqCsPfs7PHP-6N-1">
          <mxGeometry x="400" y="660" width="30" height="60" as="geometry" />
        </mxCell>
        <mxCell id="ohJHQoJmDfSmR-yKIUeT-45" value="Use Case" style="ellipse;whiteSpace=wrap;html=1;" vertex="1" parent="m9xMKLLqCsPfs7PHP-6N-1">
          <mxGeometry x="510" y="660" width="140" height="70" as="geometry" />
        </mxCell>
      </root>
    </mxGraphModel>
  </diagram>
</mxfile>
